<svg width="24.000000" height="24.000000" viewBox="0 0 24 24" fill="none" xmlns="http://www.w3.org/2000/svg" xmlns:xlink="http://www.w3.org/1999/xlink">
	<desc>
			Created with Pixso.
	</desc>
	<defs/>
	<path d="M0 12C0 5.37 5.37 0 12 0C18.62 0 24 5.37 24 12C24 18.62 18.62 24 12 24C5.37 24 0 18.62 0 12Z" fill="#333333" fill-opacity="1.000000" fill-rule="nonzero"/>
	<path d="M9.59 19.2C10.92 19.2 12 18.12 12 16.79L12 14.39L9.59 14.39C8.27 14.39 7.19 15.47 7.19 16.79C7.19 18.12 8.27 19.2 9.59 19.2Z" fill="#0ACF83" fill-opacity="1.000000" fill-rule="nonzero"/>
	<path d="M7.19 12C7.19 10.67 8.27 9.6 9.59 9.6L12 9.6L12 14.4L9.59 14.4C8.27 14.4 7.19 13.32 7.19 12Z" fill="#A259FF" fill-opacity="1.000000" fill-rule="nonzero"/>
	<path d="M7.19 7.19C7.19 5.87 8.27 4.8 9.59 4.8L12 4.8L12 9.6L9.59 9.6C8.27 9.6 7.19 8.52 7.19 7.19Z" fill="#F24E1E" fill-opacity="1.000000" fill-rule="nonzero"/>
	<path d="M12 4.8L14.39 4.8C15.72 4.8 16.79 5.87 16.79 7.19C16.79 8.52 15.72 9.6 14.39 9.6L12 9.6L12 4.8Z" fill="#FF7262" fill-opacity="1.000000" fill-rule="nonzero"/>
	<path d="M16.79 12C16.79 13.32 15.72 14.4 14.39 14.4C13.07 14.4 12 13.32 12 12C12 10.67 13.07 9.6 14.39 9.6C15.72 9.6 16.79 10.67 16.79 12Z" fill="#1ABCFE" fill-opacity="1.000000" fill-rule="nonzero"/>
</svg>
