<svg width="19.000000" height="20.000000" viewBox="0 0 19 20" fill="none" xmlns="http://www.w3.org/2000/svg" xmlns:xlink="http://www.w3.org/1999/xlink">
	<desc>
			Created with Pixso.
	</desc>
	<defs/>
	<path d="M18.86 9.72C18.86 9.04 18.81 8.36 18.69 7.69L9.19 7.69L9.19 11.54L14.63 11.54C14.52 12.16 14.29 12.74 13.94 13.26C13.6 13.79 13.15 14.23 12.62 14.58L12.62 17.08L15.87 17.08C17.77 15.34 18.86 12.77 18.86 9.72Z" fill="#4285F4" fill-opacity="1.000000" fill-rule="nonzero"/>
	<path d="M9.19 19.5C11.91 19.5 14.2 18.61 15.87 17.08L12.62 14.58C11.72 15.19 10.56 15.54 9.19 15.54C6.57 15.54 4.34 13.78 3.54 11.41L0.2 11.41L0.2 13.99C1.04 15.64 2.32 17.03 3.91 18.01C5.5 18.98 7.33 19.49 9.19 19.5Z" fill="#34A853" fill-opacity="1.000000" fill-rule="nonzero"/>
	<path d="M3.54 11.41C3.12 10.17 3.12 8.82 3.54 7.58L3.54 5.01L0.2 5.01C-0.51 6.4 -0.87 7.94 -0.87 9.5C-0.87 11.05 -0.51 12.59 0.2 13.99L3.54 11.41Z" fill="#FBBC04" fill-opacity="1.000000" fill-rule="nonzero"/>
	<path d="M9.19 3.45C10.63 3.43 12.02 3.97 13.06 4.95L15.93 2.1C14.11 0.4 11.69 -0.53 9.19 -0.5C7.33 -0.5 5.5 0.01 3.91 0.98C2.32 1.96 1.04 3.35 0.2 5.01L3.54 7.58C4.34 5.21 6.57 3.45 9.19 3.45Z" fill="#EA4335" fill-opacity="1.000000" fill-rule="nonzero"/>
</svg>
