<svg width="92.000000" height="15.000000" viewBox="0 0 92 15" fill="none" xmlns="http://www.w3.org/2000/svg" xmlns:xlink="http://www.w3.org/1999/xlink">
	<desc>
			Created with Pixso.
	</desc>
	<defs/>
	<path d="M47.81 2.98C47.36 2.98 46.99 2.84 46.68 2.56C46.39 2.27 46.25 1.91 46.25 1.49C46.25 1.06 46.39 0.71 46.68 0.43C46.99 0.14 47.36 0 47.81 0C48.26 0 48.63 0.14 48.92 0.43C49.23 0.71 49.38 1.06 49.38 1.49C49.38 1.91 49.23 2.27 48.92 2.56C48.63 2.84 48.26 2.98 47.81 2.98ZM2.16 1.56L2.16 9.43C2.16 10.3 2.38 10.96 2.83 11.42Q2.91 11.5 2.99 11.57Q3.65 12.1 4.73 12.1Q5.85 12.1 6.51 11.54L6.51 11.54Q6.58 11.49 6.64 11.42Q6.67 11.39 6.7 11.35Q7.32 10.67 7.32 9.43L7.32 1.56L9.89 1.56L9.89 9.42Q9.89 11.04 9.18 12.17C8.71 12.91 8.09 13.47 7.3 13.84L7.3 13.85Q6.13 14.41 4.69 14.41Q3.35 14.41 2.24 13.91L2.24 13.91Q2.17 13.88 2.1 13.84C1.34 13.47 0.73 12.91 0.28 12.17Q-0.39 11.04 -0.39 9.42L-0.39 1.56L2.16 1.56ZM14.9 1.56L14.9 14.28L12.35 14.28L12.35 1.56L14.9 1.56ZM24.28 1.56L24.28 9.43C24.28 10.3 24.5 10.96 24.95 11.42Q25.03 11.5 25.12 11.57Q25.77 12.1 26.85 12.1C27.68 12.1 28.31 11.87 28.76 11.42C29.21 10.96 29.44 10.3 29.44 9.43L29.44 1.56L32.01 1.56L32.01 9.42C32.01 10.5 31.77 11.41 31.3 12.17C30.83 12.91 30.21 13.47 29.42 13.84C28.64 14.22 27.77 14.41 26.81 14.41C25.87 14.41 25 14.22 24.23 13.84C23.46 13.47 22.85 12.91 22.4 12.17C21.95 11.41 21.73 10.5 21.73 9.42L21.73 1.56L24.28 1.56ZM50.93 9.23Q50.93 7.67 51.57 6.5C52 5.71 52.59 5.1 53.34 4.68C54.09 4.24 54.96 4.02 55.93 4.02C57.18 4.02 58.21 4.34 59.03 4.97C59.85 5.59 60.4 6.46 60.68 7.59L57.93 7.59C57.79 7.16 57.54 6.82 57.19 6.57C56.85 6.32 56.42 6.19 55.91 6.19C55.18 6.19 54.6 6.46 54.18 6.99C53.75 7.52 53.54 8.26 53.54 9.23C53.54 10.19 53.75 10.94 54.18 11.48C54.6 12 55.18 12.26 55.91 12.26C56.94 12.26 57.62 11.8 57.93 10.87L60.68 10.87C60.4 11.97 59.85 12.84 59.03 13.48C58.2 14.12 57.17 14.45 55.93 14.45C54.96 14.45 54.09 14.23 53.34 13.81C52.59 13.37 52 12.76 51.57 11.99Q50.93 10.8 50.93 9.23ZM67.04 14.45C66.06 14.45 65.19 14.23 64.41 13.81C63.63 13.37 63.02 12.76 62.57 11.97C62.13 11.18 61.92 10.27 61.92 9.23C61.92 8.2 62.14 7.29 62.59 6.5C63.05 5.71 63.68 5.1 64.47 4.68C65.26 4.24 66.14 4.02 67.11 4.02C68.08 4.02 68.96 4.24 69.75 4.68C70.54 5.1 71.16 5.71 71.61 6.5Q71.66 6.59 71.71 6.69L71.71 6.69Q72.3 7.81 72.3 9.23C72.3 10.27 72.07 11.18 71.59 11.97C71.13 12.76 70.5 13.37 69.7 13.81C68.91 14.23 68.02 14.45 67.04 14.45ZM40.07 4.04Q41.32 4.04 42.24 4.59Q42.64 4.84 42.98 5.19C43.72 5.94 44.09 7 44.09 8.36L44.09 14.28L41.54 14.28L41.54 8.71Q41.54 7.51 40.94 6.87L40.94 6.87C40.54 6.43 39.99 6.21 39.3 6.21C38.6 6.21 38.04 6.43 37.62 6.87C37.22 7.29 37.02 7.9 37.02 8.71L37.02 14.28L34.47 14.28L34.47 4.19L37.02 4.19L37.02 5.44C37.36 5.01 37.79 4.67 38.32 4.42C38.85 4.17 39.43 4.04 40.07 4.04ZM76.73 5.75C77.05 5.22 77.48 4.8 78 4.5C78.54 4.19 79.14 4.04 79.82 4.04L79.82 6.72L79.15 6.72C78.35 6.72 77.74 6.91 77.33 7.28C76.93 7.66 76.73 8.32 76.73 9.25L76.73 14.28L74.17 14.28L74.17 4.19L76.73 4.19L76.73 5.75ZM87.14 4.04C88.34 4.04 89.31 4.42 90.05 5.19C90.79 5.94 91.16 7 91.16 8.36L91.16 14.28L88.61 14.28L88.61 8.71C88.61 7.9 88.41 7.29 88.01 6.87Q87.85 6.69 87.65 6.56Q87.13 6.21 86.37 6.21C85.67 6.21 85.11 6.43 84.69 6.87C84.29 7.29 84.09 7.9 84.09 8.71L84.09 14.28L81.54 14.28L81.54 4.19L84.09 4.19L84.09 5.44C84.43 5.01 84.86 4.67 85.39 4.42C85.92 4.17 86.5 4.04 87.14 4.04ZM49.07 4.19L49.07 14.28L46.52 14.28L46.52 4.19L49.07 4.19ZM67.04 12.22C67.5 12.22 67.93 12.11 68.33 11.89C68.74 11.66 69.07 11.32 69.31 10.87C69.56 10.42 69.68 9.88 69.68 9.23C69.68 8.27 69.42 7.54 68.91 7.03C68.41 6.51 67.8 6.25 67.07 6.25C66.34 6.25 65.73 6.51 65.23 7.03Q65.22 7.04 65.21 7.05Q64.5 7.82 64.5 9.23C64.5 10.19 64.74 10.93 65.21 11.46C65.7 11.97 66.31 12.22 67.04 12.22Z" fill="#1A1A1A" fill-opacity="1.000000" fill-rule="evenodd"/>
</svg>
